<svg width="56" height="56" viewBox="0 0 56 56" fill="none" xmlns="http://www.w3.org/2000/svg">
<rect width="56" height="56" rx="14" fill="url(#paint0_linear_448_42774)"/>
<path fill-rule="evenodd" clip-rule="evenodd" d="M36.8001 29.8616C36.8001 30.453 36.3201 30.9282 35.7334 30.9282H34.1334V26.3949H35.7334C36.3201 26.3949 36.8001 26.8744 36.8001 27.4616V29.8616ZM29.8668 37.3336H27.4668C27.3174 37.3336 27.2001 37.2104 27.2001 37.0669V36.0002C27.2001 35.8504 27.3174 35.7336 27.4668 35.7336H29.8668V37.3336ZM21.8668 30.9282H20.2668C19.6801 30.9282 19.2001 30.453 19.2001 29.8616V27.4616C19.2001 26.8744 19.6801 26.3949 20.2668 26.3949H21.8668V30.9282ZM35.7334 24.7949V24.4104C35.7334 20.4269 32.8748 17.0669 29.4881 17.0669H26.5121C23.1254 17.0669 20.2668 20.4269 20.2668 24.4104V24.7949C18.7948 24.7949 17.6001 25.989 17.6001 27.4616V29.8616C17.6001 31.3389 18.7948 32.5282 20.2668 32.5282H22.4001C22.9868 32.5282 23.4668 32.053 23.4668 31.4616V25.8616C23.4668 25.2744 22.9868 24.7949 22.4001 24.7949H21.8668V24.4104C21.8668 21.2957 23.9948 18.6669 26.5121 18.6669H29.4881C32.0054 18.6669 34.1334 21.2957 34.1334 24.4104V24.7949H33.6001C33.0134 24.7949 32.5334 25.2744 32.5334 25.8616V31.4616C32.5334 32.053 33.0134 32.5282 33.6001 32.5282H34.6668V34.9336C34.6668 35.3704 34.3094 35.7336 33.8668 35.7336H31.4668V34.9336C31.4668 34.4909 31.1094 34.1336 30.6668 34.1336H27.4668C26.4374 34.1336 25.6001 34.9704 25.6001 36.0002V37.0669C25.6001 38.0957 26.4374 38.9336 27.4668 38.9336H30.6668C31.1094 38.9336 31.4668 38.5704 31.4668 38.1336V37.3336H33.8668C35.1894 37.3336 36.2668 36.2557 36.2668 34.9336V32.4744C37.4828 32.229 38.4001 31.1576 38.4001 29.8616V27.4616C38.4001 25.989 37.2054 24.7949 35.7334 24.7949Z" fill="black"/>
<defs>
<linearGradient id="paint0_linear_448_42774" x1="0" y1="0" x2="67.5653" y2="26.3927" gradientUnits="userSpaceOnUse">
<stop stop-color="#03FFCA"/>
<stop offset="1" stop-color="#8DF79D"/>
</linearGradient>
</defs>
</svg>
