<svg width="56" height="56" viewBox="0 0 56 56" fill="none" xmlns="http://www.w3.org/2000/svg">
<rect width="56" height="56" rx="14" fill="url(#paint0_linear_448_42751)"/>
<path fill-rule="evenodd" clip-rule="evenodd" d="M37.3336 33.6H31.909C31.6893 34.2213 31.0968 34.6666 30.4002 34.6666H25.6002C24.9037 34.6666 24.3112 34.2213 24.0914 33.6H18.6669V35.7333C18.6669 36.0272 18.9064 36.2666 19.2002 36.2666H36.8002C37.0941 36.2666 37.3336 36.0272 37.3336 35.7333V33.6ZM19.7336 32H25.0669C25.3613 32 25.6002 32.2389 25.6002 32.5333V33.0666H30.4002V32.5333C30.4002 32.2389 30.6392 32 30.9336 32H36.2669V19.7333H19.7336V32ZM38.9336 32.5333V35.7333C38.9336 36.9114 37.9784 37.8666 36.8002 37.8666H19.2002C18.0221 37.8666 17.0669 36.9114 17.0669 35.7333V32.5333C17.0669 32.2389 17.3058 32 17.6002 32H18.1336V19.7333C18.1336 18.8496 18.8498 18.1333 19.7336 18.1333H36.2669C37.1506 18.1333 37.8669 18.8496 37.8669 19.7333V32H38.4002C38.6946 32 38.9336 32.2389 38.9336 32.5333ZM26.6797 29.1408L24.813 27.5408C24.4776 27.2533 24.4386 26.7482 24.7261 26.4128C25.0136 26.0768 25.5197 26.0384 25.8541 26.3258L27.14 27.4277L30.6168 23.7194C30.9186 23.3973 31.4242 23.3802 31.7474 23.6832C32.0696 23.985 32.0861 24.4912 31.7837 24.8138L27.7837 29.0805C27.6269 29.248 27.4136 29.3333 27.2002 29.3333C27.0152 29.3333 26.8301 29.2698 26.6797 29.1408Z" fill="black"/>
<defs>
<linearGradient id="paint0_linear_448_42751" x1="0" y1="0" x2="67.5653" y2="26.3927" gradientUnits="userSpaceOnUse">
<stop stop-color="#03FFCA"/>
<stop offset="0.494792" stop-color="#47FBB4"/>
<stop offset="1" stop-color="#8DF79D"/>
</linearGradient>
</defs>
</svg>
