<svg width="56" height="56" viewBox="0 0 56 56" fill="none" xmlns="http://www.w3.org/2000/svg">
<rect width="56" height="56" rx="14" fill="url(#paint0_linear_448_42768)"/>
<path fill-rule="evenodd" clip-rule="evenodd" d="M31.2109 30.0805C31.5347 30.3808 31.5539 30.8875 31.2531 31.2112L27.7864 34.9445C27.6291 35.1141 27.4147 35.2 27.1997 35.2C27.0152 35.2 26.8301 35.1365 26.6792 35.0075L24.8125 33.4074C24.4776 33.12 24.4381 32.6149 24.7261 32.2795C25.0136 31.944 25.5192 31.9056 25.8541 32.1925L27.1368 33.2922L30.0803 30.1227C30.3805 29.7989 30.8872 29.7803 31.2109 30.0805ZM21.3331 37.3333V27.2H22.3997H33.5997H34.6664V37.3333H21.3331ZM23.4664 25.6H28.2664V18.6667H23.4664V25.6ZM30.3997 25.6H32.5331V18.6667H30.3997V25.6ZM38.1331 37.3333H36.2664V26.9333C36.2664 26.1984 35.6685 25.6 34.9331 25.6H34.1331V17.8667C34.1331 17.4251 33.7752 17.0667 33.3331 17.0667H22.6664C22.2248 17.0667 21.8664 17.4251 21.8664 17.8667V25.6H21.0664C20.3315 25.6 19.7331 26.1984 19.7331 26.9333V37.3333H17.8664C17.4248 37.3333 17.0664 37.6917 17.0664 38.1333C17.0664 38.5755 17.4248 38.9333 17.8664 38.9333H38.1331C38.5752 38.9333 38.9331 38.5755 38.9331 38.1333C38.9331 37.6917 38.5752 37.3333 38.1331 37.3333Z" fill="black"/>
<defs>
<linearGradient id="paint0_linear_448_42768" x1="0" y1="0" x2="67.5653" y2="26.3927" gradientUnits="userSpaceOnUse">
<stop stop-color="#03FFCA"/>
<stop offset="1" stop-color="#8DF79D"/>
</linearGradient>
</defs>
</svg>
