<svg width="56" height="56" viewBox="0 0 56 56" fill="none" xmlns="http://www.w3.org/2000/svg">
<rect width="56" height="56" rx="14" fill="url(#paint0_linear_448_42757)"/>
<path fill-rule="evenodd" clip-rule="evenodd" d="M24.8023 27.5313C24.4722 27.238 24.4418 26.7318 24.7356 26.4017C25.029 26.0716 25.5351 26.0422 25.8647 26.3356L27.6396 27.9132L30.5794 24.2956C30.8572 23.9532 31.3612 23.8998 31.7047 24.1793C32.0476 24.4577 32.0999 24.9617 31.821 25.3046L28.3543 29.5713C28.2167 29.7409 28.0156 29.8465 27.798 29.8641C27.7767 29.8657 27.7548 29.8668 27.7335 29.8668C27.5383 29.8668 27.349 29.7953 27.2023 29.6646L24.8023 27.5313ZM29.8668 34.9334V36.0001C29.8668 36.1473 29.7474 36.2668 29.6002 36.2668H26.9335C26.7863 36.2668 26.6668 36.1473 26.6668 36.0001V34.9334C26.6668 34.7862 26.7863 34.6668 26.9335 34.6668H29.6002C29.7474 34.6668 29.8668 34.7862 29.8668 34.9334ZM22.9335 37.3334H33.6002V18.6668H22.9335V37.3334ZM33.6002 17.0668H22.9335C22.0498 17.0668 21.3335 17.783 21.3335 18.6668V37.3334C21.3335 38.2172 22.0498 38.9334 22.9335 38.9334H33.6002C34.4839 38.9334 35.2002 38.2172 35.2002 37.3334V18.6668C35.2002 17.783 34.4839 17.0668 33.6002 17.0668Z" fill="black"/>
<defs>
<linearGradient id="paint0_linear_448_42757" x1="0" y1="0" x2="67.5653" y2="26.3927" gradientUnits="userSpaceOnUse">
<stop stop-color="#03FFCA"/>
<stop offset="1" stop-color="#8DF79D"/>
</linearGradient>
</defs>
</svg>
